<svg width="380" height="420" viewBox="0 0 380 420" role="img" xmlns="http://www.w3.org/2000/svg">
<title>Almari logo — full seal with hexagon</title>
<desc>Almari full logo seal with rounded hexagon, almirah icon, ALMARI wordmark, English tagline, and Yaadein Virasat Apnapan</desc>

<style>
@import url('https://fonts.googleapis.com/css2?family=Cormorant+Garamond:wght@400;500;600&display=swap');
.wm { font-family: 'Cormorant Garamond', serif; font-weight: 600; fill: #0D1B3E; }
.tag { font-family: 'Cormorant Garamond', serif; font-weight: 400; font-style: italic; fill: #C9953C; }
.hindi { font-family: 'Cormorant Garamond', serif; font-weight: 500; fill: #C9953C; }
</style>

<path d="M 202,53 L 304,112 Q 318,120 318,136 L 318,258 Q 318,274 304,282 L 202,341 Q 190,348 178,341 L 76,282 Q 62,274 62,258 L 62,136 Q 62,120 76,112 L 178,53 Q 190,46 202,53 Z" fill="none" stroke="#C9953C" stroke-width="1.4"/>
<path d="M 200,62 L 298,118 Q 310,126 310,140 L 310,254 Q 310,268 298,276 L 200,332 Q 190,338 180,332 L 82,276 Q 70,268 70,254 L 70,140 Q 70,126 82,118 L 180,62 Q 190,56 200,62 Z" fill="none" stroke="#C9953C" stroke-width="0.4" opacity="0.35"/>

<circle cx="190" cy="47" r="2.5" fill="#C9953C"/>
<circle cx="318" cy="136" r="2.5" fill="#C9953C"/>
<circle cx="318" cy="258" r="2.5" fill="#C9953C"/>
<circle cx="190" cy="347" r="2.5" fill="#C9953C"/>
<circle cx="62" cy="258" r="2.5" fill="#C9953C"/>
<circle cx="62" cy="136" r="2.5" fill="#C9953C"/>

<rect x="152" y="95" width="76" height="88" rx="3" fill="#0D1B3E" stroke="#C9953C" stroke-width="1.2"/>
<line x1="190" y1="95" x2="190" y2="183" stroke="#C9953C" stroke-width="0.8"/>
<rect x="149" y="92" width="82" height="6" rx="1.5" fill="#0D1B3E" stroke="#C9953C" stroke-width="0.8"/>
<rect x="158" y="181" width="6" height="8" rx="1" fill="#C9953C"/>
<rect x="216" y="181" width="6" height="8" rx="1" fill="#C9953C"/>
<rect x="156" y="103" width="28" height="34" rx="2" fill="#1E3060" stroke="#C8D4DC" stroke-width="0.6"/>
<line x1="159" y1="106" x2="162" y2="109" stroke="#C8D4DC" stroke-width="0.8" stroke-linecap="round" opacity="0.5"/>
<circle cx="165" cy="115" r="1.5" fill="#C9953C"/>
<circle cx="172" cy="111" r="1.2" fill="#E8C4C0"/>
<circle cx="178" cy="118" r="1.5" fill="#C9953C"/>
<circle cx="169" cy="123" r="1" fill="#E8C4C0"/>
<circle cx="175" cy="128" r="1.2" fill="#C9953C"/>
<rect x="196" y="103" width="28" height="34" rx="2" fill="#152347" stroke="#C8D4DC" stroke-width="0.6" opacity="0.7"/>
<circle cx="197" cy="141" r="2.5" fill="#C9953C"/>
<circle cx="183" cy="141" r="2.5" fill="#C9953C"/>
<path d="M197 143 Q200 151 196 157 Q193 163 197 169 Q200 173 196 177" stroke="#E8C4C0" stroke-width="2.5" fill="none" stroke-linecap="round"/>
<path d="M197 143 Q204 150 201 157 Q198 164 202 170 Q205 174 201 177" stroke="#C9953C" stroke-width="1.5" fill="none" stroke-linecap="round" opacity="0.8"/>

<rect x="152" y="196" width="76" height="2" rx="1" fill="#C9953C" opacity="0.7"/>
<text class="wm" x="190" y="222" text-anchor="middle" font-size="26" letter-spacing="7">ALMARI</text>
<text class="tag" x="190" y="240" text-anchor="middle" font-size="9" letter-spacing="0.2">Curating Memories, Preserving Heritage</text>
<line x1="120" y1="260" x2="260" y2="260" stroke="#C9953C" stroke-width="0.5" opacity="0.5"/>
<text class="hindi" x="190" y="278" text-anchor="middle" font-size="9" letter-spacing="0">YAADEIN · VIRASAT · APNAPAN</text>
<line x1="120" y1="287" x2="260" y2="287" stroke="#C9953C" stroke-width="0.4" opacity="0.35"/>
</svg>
